<?xml version="1.0" standalone="no"?>
<svg
  width="600"
  height="600"
  viewBox="0 0 600 600"
  xmlns="http://www.w3.org/2000/svg"
>
  <g transform="translate(300,300)">
    <path d="M43,-72.9C58.6,-56.9,76.2,-49.8,98,-35.1C119.9,-20.3,146,2.2,156.3,31.8C166.5,61.3,160.7,97.8,137.1,110.9C113.4,124,71.9,113.8,34.5,131.1C-3,148.4,-36.4,193.2,-58,190.2C-79.6,187.2,-89.3,136.5,-98.4,99.8C-107.6,63.2,-116.1,40.6,-129.4,12.7C-142.6,-15.2,-160.4,-48.3,-160.9,-84.4C-161.4,-120.5,-144.5,-159.5,-114.8,-169.1C-85.1,-178.7,-42.5,-158.8,-14.4,-136.4C13.7,-114,27.4,-89,43,-72.9Z" fill="#4776e6" />
  </g>
</svg>
    